<svg width="160" height="160" viewBox="0 0 160 160" fill="none" xmlns="http://www.w3.org/2000/svg">
<g id="Rectangle 32">
<path fill-rule="evenodd" clip-rule="evenodd" d="M160 0H0V160H160V0ZM20 140V20H140V140H20Z" fill="#59BE67"/>
<path d="M62.5 57.5L66.5 73L51.5 78.5L61 107.5H42L31.5 76L38.5 72L37 65.5L62.5 57.5Z" fill="#59BE67"/>
<path d="M98 57.5L123.5 65.5L122 72L130.5 76L118.5 107.5H100L110 78.5L95.5 73L98 57.5Z" fill="#59BE67"/>
<path d="M71 57.5H89.5V107.5H71V57.5Z" fill="#59BE67"/>
<path d="M81 30L69 41.5L81 54L92.5 41.5L81 30Z" fill="#59BE67"/>
<path d="M47.5 115V131H116V115H47.5Z" fill="#59BE67"/>
</g>
</svg>
